<?xml version="1.0" encoding="utf-8"?>
<!-- Generator: Adobe Illustrator 16.0.0, SVG Export Plug-In . SVG Version: 6.00 Build 0)  -->
<!DOCTYPE svg PUBLIC "-//W3C//DTD SVG 1.1//EN" "http://www.w3.org/Graphics/SVG/1.1/DTD/svg11.dtd">
<svg version="1.1" id="Calque_1" xmlns="http://www.w3.org/2000/svg" xmlns:xlink="http://www.w3.org/1999/xlink" x="0px" y="0px"
	 width="595.281px" height="841.891px" viewBox="0 0 595.281 841.891" enable-background="new 0 0 595.281 841.891"
	 xml:space="preserve">
<g>
	<path d="M249.957,408.109"/>
	<g>
		<path fill="none" stroke="#000000" stroke-miterlimit="10" d="M249.957,408.109"/>
	</g>
</g>
<g>
	<path d="M277.38,408.109"/>
	<g>
		<path fill="none" stroke="#000000" stroke-miterlimit="10" d="M277.38,408.109"/>
	</g>
</g>
<g>
	<path d="M279.873,398.137"/>
	<g>
		<path fill="none" stroke="#000000" stroke-miterlimit="10" d="M279.873,398.137"/>
	</g>
</g>
<g>
	<path d="M252.45,410.603"/>
	<g>
		<path fill="none" stroke="#000000" stroke-miterlimit="10" d="M252.45,410.603"/>
	</g>
</g>
<rect x="10.977" y="433.187" fill="none" width="680.593" height="233.781"/>
<text transform="matrix(1 0 0 1 10.9771 547.7947)" font-family="'Kodchasan-Regular'" font-size="151">meme’R</text>
<g>
	<path stroke="#000000" stroke-miterlimit="10" d="M222.512,358.802c-0.331-1.691-0.333-1.696,1.046-2.506
		c8.147-4.79,15.397-10.631,21.229-18.129c0.229-0.294,0.459-0.584,0.769-0.978c-18.695-7.785-30.049-21.989-35.964-40.875
		c-1.443,0.25-2.81,0.553-4.192,0.709c-3.963,0.444-6.843-1.614-7.608-5.525c-0.285-1.473-0.399-3.016-0.333-4.513
		c0.123-2.643,1.949-4.277,4.614-4.315c0.71-0.011,1.43,0.064,2.135,0.166c0.705,0.103,1.397,0.287,2.231,0.465
		c-0.192-1.304-0.388-2.56-0.562-3.82c-0.553-4.017-0.565-8.053-0.32-12.085c0.363-5.933,1.628-11.663,4.165-17.073
		c3.656-7.804,9.412-13.659,16.79-17.988c6.813-4.001,14.225-6.378,21.922-7.946c7.367-1.5,14.824-2.195,22.332-2.45
		c7.649-0.259,15.289-0.157,22.921,0.415c1.874,0.141,3.744,0.354,5.667,0.539c0.125-1.977,0.182-3.891,0.388-5.789
		c0.519-4.778,1.474-9.45,3.873-13.694c3.473-6.141,8.848-8.579,15.746-7.994c5.182,0.44,9.973,2.19,14.644,4.352
		c5.494,2.542,10.828,5.351,15.521,9.234c1.883,1.559,3.588,3.286,4.951,5.33c3.189,4.787,3.267,9.614,0.188,14.486
		c-2.483,3.934-5.209,7.666-8.684,10.81c-1.119,1.013-2.1,2.185-3.17,3.314c8.964,12.058,9.816,25.833,7.794,40.266
		c0.796-0.156,1.562-0.366,2.337-0.438c0.906-0.085,1.842-0.173,2.734-0.046c2.23,0.315,3.584,1.805,3.827,4.205
		c0.202,2.014-0.021,4.014-0.724,5.918c-1.122,3.039-3.808,4.578-7.271,4.173c-1.356-0.158-2.698-0.458-4.161-0.712
		c-5.395,17.2-15.332,30.839-32.013,39.112c0.836,0.868,1.629,1.669,2.405,2.49c3.919,4.137,7.835,8.283,10.973,13.072
		c0.641,0.978,1.153,2.041,1.667,3.092c0.783,1.61,0.65,3.213-0.146,4.787c-1.321,2.619-3.232,4.798-5.295,6.825
		c-2.411,2.364-4.936,4.613-7.412,6.911c-0.249,0.234-0.507,0.456-0.795,0.713c1.67,1.269,3.522,2.411,3.569,4.769
		c0.048,2.329-1.648,3.579-3.173,4.681c0.722,1.502,1.528,2.909,2.086,4.41c0.697,1.875,0.242,3.638-1.147,5.072
		c-0.484,0.499-0.501,0.902-0.321,1.507c1.302,4.386,2.574,8.779,3.846,13.173c0.343,1.19,0.203,1.479-0.985,1.8
		c-2.54,0.688-5.091,1.331-7.637,1.989c-0.273,0.07-0.549,0.129-0.783,0.185c0,2.831,0.037,5.607-0.008,8.38
		c-0.071,4.24-0.158,8.499-1.15,12.631c-0.503,2.085-1.396,4.123-2.388,6.037c-1.162,2.261-3.313,3.261-5.768,3.535
		c-2.771,0.307-5.488-0.066-8.113-1.003c-4.096-1.456-5.672-3.563-5.853-7.896c-0.146-3.434-0.2-6.868-0.27-10.303
		c-0.056-2.776-0.079-5.553-0.12-8.333c-0.006-0.281-0.056-0.561-0.11-1.009c-3.793,0-7.557,0-11.412,0c0,0.26-0.006,0.67,0,1.084
		c0.079,6.442,0.178,12.883,0.215,19.324c0.007,1.079-0.211,2.162-0.387,3.234c-0.264,1.597-1.188,2.75-2.681,3.315
		c-4.026,1.53-8.178,1.993-12.385,0.95c-3.441-0.85-5.617-3.104-6.387-6.584c-0.532-2.396-1.025-4.811-1.367-7.237
		c-0.73-5.199-0.897-10.44-0.87-15.679c0.003-0.914-0.255-1.202-1.146-1.331c-3.086-0.433-6.162-0.954-9.238-1.468
		c-1.156-0.192-1.347-0.519-1.046-1.637c1.226-4.525,2.455-9.052,3.691-13.61c-0.079-0.069-0.153-0.157-0.248-0.208
		c-2.485-1.372-3.241-3.222-2.387-5.962c0.203-0.652,0.477-1.287,0.769-1.906c0.281-0.592,0.626-1.154,0.943-1.728
		c-0.825-0.393-1.681-0.721-2.459-1.181c-2.218-1.309-2.632-3.416-0.879-5.308c1.131-1.224,2.581-2.154,3.863-3.242
		c0.251-0.213,0.543-0.543,0.562-0.836c0.317-4.854,0.594-9.711,0.879-14.569c0.004-0.081-0.007-0.168-0.018-0.344
		c-0.143,0.115-0.259,0.174-0.331,0.27c-3.591,4.656-7.87,8.619-12.43,12.293c-0.489,0.392-0.492,0.713-0.397,1.286
		c0.238,1.46,0.44,2.943,0.457,4.421c0.037,3.176-0.07,6.355-0.084,9.534c-0.048,9.51-0.073,19.02-0.122,28.532
		c-0.045,8.392-0.102,16.785-0.196,25.176c-0.007,0.463-0.288,1.067-0.644,1.359c-3.031,2.496-6.317,1.948-9.173-0.28
		c-0.299-0.232-0.424-0.851-0.425-1.289c-0.033-9.139-0.033-18.278-0.048-27.416c-0.012-7.451-0.031-14.898-0.06-22.348
		c-0.011-3.089,0.008-6.183-0.111-9.271c-0.048-1.27-0.403-2.531-0.65-3.79c-0.118-0.605-0.558-0.871-1.155-0.976
		c-2.371-0.409-3.429,0.597-3.403,3.09c0.018,1.622,0.022,3.279-0.288,4.856c-0.481,2.447-2.236,3.811-4.717,4.029
		c-2.015,0.176-3.898-1.011-4.488-3.011c-1.329-4.499-1.342-8.972,0.583-13.343c0.219-0.494,0.451-1.008,0.792-1.416
		c0.447-0.534,0.514-1.078,0.438-1.74c-0.614-5.349,2.048-8.677,7.41-9.15C219.047,358.679,220.741,358.802,222.512,358.802z
		 M278.424,223.67c-1.287,0-2.576-0.008-3.864,0c-7.94,0.05-15.834,0.669-23.655,2.09c-7.409,1.345-14.588,3.411-21.29,6.927
		c-6.343,3.328-11.726,7.761-15.684,13.805c-4.457,6.81-6.281,14.41-6.654,22.428c-0.223,4.765,0.116,9.496,0.976,14.19
		c0.21,1.145,1.224,1.973,2.399,1.805c7.176-1.021,14.239-2.56,21.173-4.67c10.601-3.227,20.597-7.751,29.804-13.956
		c10.868-7.326,19.885-16.498,27.187-27.372c0.295-0.442,0.599-0.871,1.235-0.673c0.687,0.215,0.652,0.757,0.598,1.33
		c-0.312,3.323-0.213,6.631,0.403,9.918c1.369,7.271,5.117,13.15,10.554,18.034c4.582,4.117,9.848,7.151,15.442,9.651
		c8.369,3.741,17.164,6.099,26.086,8.082c1.79,0.399,3.26,0.226,4.729-0.81c0.427-0.302,0.73-0.552,0.804-1.097
		c0.224-1.702,0.55-3.392,0.728-5.096c0.549-5.206,0.448-10.406-0.353-15.579c-0.938-6.072-2.954-11.743-6.449-16.842
		c-4.397-6.417-10.386-10.896-17.34-14.175c-8.245-3.885-17.025-5.802-26.009-6.926C292.333,223.87,285.385,223.611,278.424,223.67z
		 M347.744,288.017c-1.021-0.325-1.859-0.462-2.838,0.094c-4.878,2.765-9.796,5.46-14.723,8.138
		c-0.679,0.37-0.781,0.742-0.659,1.471c0.862,5.194,0.053,10.085-3.193,14.325c-5.521,7.215-12.927,9.842-21.826,8.629
		c-8.265-1.127-17.614-8.723-17.607-19.165c0-0.251-0.196-0.629-0.406-0.735c-5.298-2.679-10.607-3.053-15.87,0.093
		c-0.292,0.175-0.573,0.643-0.583,0.982c-0.157,5.111-2.202,9.354-5.847,12.861c-5.865,5.639-12.883,7.256-20.709,5.737
		c-10.967-2.13-17.971-12.307-15.995-23.133c0.081-0.449,0.027-0.714-0.426-0.959c-5.63-3.056-11.244-6.145-16.878-9.203
		c-0.321-0.174-0.754-0.145-1.244-0.229c1.468,6.141,3.17,11.977,5.677,17.556c5.149,11.477,12.882,20.688,23.78,27.12
		c6.927,4.09,14.441,6.589,22.302,8.119c5.911,1.15,11.897,1.821,17.911,1.796c6.794-0.025,13.538-0.85,20.179-2.329
		c8.114-1.804,15.758-4.758,22.693-9.417c8.724-5.862,15.173-13.668,19.79-23.056C344.192,300.78,346.142,294.512,347.744,288.017z
		 M232.425,369.388c2.362-2.143,4.808-4.107,6.946-6.36c2.616-2.757,4.98-5.752,7.438-8.654c0.365-0.432,0.803-0.807,1.302-0.473
		c0.292,0.192,0.502,0.758,0.477,1.138c-0.34,5.024-0.739,10.044-1.098,15.067c-0.063,0.903-0.008,1.817-0.008,2.78
		c22.216-2.797,44.396-3.555,66.84-0.459c-0.616-4.156-1.172-8.115-1.798-12.065c-0.22-1.381-0.616-2.733-0.922-4.1
		c-0.132-0.585,0.053-1.055,0.667-1.196c0.571-0.129,0.916,0.198,1.075,0.734c0.041,0.136,0.095,0.271,0.118,0.413
		c0.703,4.028,1.412,8.052,2.088,12.081c0.178,1.046,0.24,2.109,0.388,3.448c2.813-2.676,5.469-5.116,8.023-7.658
		c1.805-1.798,3.469-3.731,4.643-6.033c0.563-1.097,0.706-2.204,0.094-3.28c-0.963-1.684-1.894-3.407-3.037-4.967
		c-3.484-4.739-7.592-8.939-11.672-13.161c-0.363-0.375-0.645-0.314-1.044-0.138c-4.46,1.975-9.09,3.428-13.85,4.468
		c-1.211,0.265-2.427,0.508-3.564,0.746c0.531,1.257,1.145,2.403,1.502,3.625c0.592,2.025-0.466,3.404-2.56,3.29
		c-1.294-0.07-2.577-0.451-3.85-0.755c-0.729-0.176-1.428-0.477-2.085-0.705c-0.175,0.905-0.25,1.742-0.507,2.519
		c-0.574,1.725-1.91,2.476-3.639,1.898c-1.145-0.384-2.22-1.031-3.25-1.678c-0.839-0.521-1.567-1.214-2.381-1.859
		c-0.23,0.212-0.438,0.406-0.649,0.593c-1.33,1.177-2.641,2.385-4.379,2.955c-2.002,0.653-3.524-0.061-4.231-2.042
		c-0.274-0.775-0.414-1.597-0.61-2.381c-1.199,0.365-2.38,0.813-3.604,1.072c-1.167,0.247-2.455,0.482-3.366-0.607
		c-0.942-1.126-0.412-2.341,0.047-3.486c0.292-0.729,0.704-1.411,1.076-2.144c-0.174-0.04-0.285-0.07-0.396-0.087
		c-5.058-0.862-10.017-2.101-14.828-3.893c-0.541-0.203-0.71,0.136-0.952,0.448c-4.225,5.433-9.01,10.297-14.643,14.283
		c-2.589,1.831-5.254,3.555-7.937,5.363C225.712,362.672,228.665,366.195,232.425,369.388z M288.668,242.347
		c-10.41,14.554-23.541,25.491-39.411,33.179c0.244,0.046,0.455,0.032,0.665,0.009c1.849-0.211,3.695-0.434,5.544-0.635
		c0.571-0.063,0.963,0.197,1.003,0.795c0.041,0.578-0.279,0.904-0.856,0.97c-0.427,0.047-0.855,0.077-1.281,0.143
		c-2.91,0.451-5.815,0.924-8.729,1.356c-2.934,0.436-5.696,1.544-8.508,2.372c-5.898,1.735-11.769,3.534-17.808,4.726
		c-2.096,0.413-4.199,0.797-6.495,1.23c5.204,2.847,10.254,5.608,15.214,8.32c4.351-9.104,11.475-13.796,21.454-13.317
		c11.161,0.536,18.102,6.515,20.695,17.502c5.522-3.046,11.157-2.722,16.701-0.105c2.335-10.331,8.798-16.26,19.108-17.31
		c10.583-1.076,18.365,3.513,22.983,13.299c4.608-2.549,9.268-5.124,14.1-7.797c-0.51-0.131-0.776-0.198-1.05-0.268
		c-5.031-1.316-10.077-2.568-15.086-3.976c-2.849-0.799-5.742-1.6-8.409-2.842c-5.725-2.665-11.583-4.244-17.94-3.428
		c-0.553,0.071-0.974-0.164-1.057-0.749c-0.089-0.622,0.252-0.982,0.858-1.052c0.737-0.083,1.479-0.171,2.221-0.182
		c1.848-0.026,3.692-0.008,5.502-0.008C296.247,267.288,288.512,257.344,288.668,242.347z M282.594,372.152
		c-3.89,0.141-7.785,0.161-11.663,0.453c-7.273,0.547-14.532,1.313-21.804,1.861c-2.817,0.21-4.772,1.734-6.562,3.626
		c-1.041,1.102-0.885,1.967,0.451,2.682c0.87,0.467,1.83,0.793,2.778,1.1c1.226,0.397,1.341,0.802,0.713,1.923
		c-0.786,1.414-1.606,2.849-2.098,4.376c-0.553,1.724,0.233,2.767,1.922,3.455c1.557,0.632,3.098,0.656,4.707,0.353
		c0.982-0.187,1.411,0.319,1.167,1.283c-0.111,0.443-0.291,0.873-0.361,1.322c-0.165,1.042-0.383,2.09-0.392,3.14
		c-0.01,1.286,0.575,1.738,1.847,1.654c0.255-0.016,0.528-0.033,0.756-0.13c1.729-0.744,3.455-1.484,5.163-2.271
		c1.005-0.464,1.537-0.103,1.598,1.003c0.074,1.476,0.14,2.98,0.475,4.411c0.356,1.524,1.447,2.311,3.003,2.096
		c1.475-0.206,2.909-0.759,4.329-1.247c0.717-0.245,1.183-0.192,1.583,0.493c0.358,0.617,0.77,1.21,1.224,1.758
		c1.877,2.259,4.105,2.754,6.737,1.46c0.866-0.428,1.69-0.964,2.471-1.535c0.581-0.428,1.041-0.418,1.63-0.036
		c0.813,0.53,1.65,1.039,2.528,1.445c1.974,0.913,3.992,1.256,6,0.079c1.272-0.748,2.156-1.875,2.868-3.132
		c0.411-0.721,0.893-0.826,1.634-0.522c1.107,0.458,2.227,0.925,3.387,1.198c2.466,0.582,4.058-0.348,4.632-2.81
		c0.331-1.431,0.294-2.943,0.466-4.41c0.047-0.396,0.144-0.93,0.414-1.109c0.262-0.177,0.836-0.099,1.162,0.072
		c1.745,0.928,3.62,1.228,5.552,1.255c1.12,0.018,1.529-0.408,1.393-1.535c-0.106-0.874-0.35-1.733-0.584-2.583
		c-0.271-0.967,0.075-1.418,1.059-1.383c0.738,0.026,1.496,0.048,2.217-0.082c2.051-0.365,3.106-2.147,2.517-4.157
		c-0.462-1.568-1.252-2.938-2.463-4.059c-0.865-0.799-0.742-1.257,0.221-1.935c0.974-0.685,1.91-1.442,2.752-2.278
		c0.586-0.583,0.703-1.435,0.238-2.154c-0.973-1.503-2.286-2.683-4.086-3.011c-2.079-0.381-4.192-0.603-6.297-0.821
		C299.478,372.573,291.049,372.145,282.594,372.152z M301.42,218.173c17.35,0.492,32.297,6.473,44.588,18.823
		c0.248-0.216,0.478-0.381,0.668-0.583c2.823-2.996,5.226-6.311,7.187-9.917c1.777-3.262,1.642-6.589-0.12-9.848
		c-1.586-2.936-3.941-5.179-6.546-7.181c-4.269-3.281-9.001-5.766-13.871-8.01c-4.753-2.189-9.61-3.993-14.916-4.277
		c-5.578-0.299-9.942,1.75-12.88,6.568C302.856,208.139,301.999,213.058,301.42,218.173z M265.642,292.19
		c-0.177-0.259-0.349-0.522-0.534-0.774c-7.737-10.588-23.985-11.077-32.344-0.975c-4.75,5.742-5.211,14.047-1.053,20.056
		c7.585,10.965,23.469,11.384,31.818,2.296c0.632-0.69,1.209-1.436,1.812-2.155c-7.05,4.568-13.697,2.41-17.187-1.725
		c-3.785-4.48-3.692-11.412,0.114-15.635C252.146,288.975,258.92,287.132,265.642,292.19z M290.277,308.035
		c0.372,1.346,1.868,3.461,3.375,5.029c7.963,8.293,21.571,7.839,29.111,0.381c5.826-5.764,7.022-14.711,2.565-21.43
		c-6.724-10.133-21.889-11.897-30.796-3.556c-1.106,1.035-2.07,2.225-3.1,3.342c0.058,0.063,0.117,0.126,0.174,0.188
		c2.633-2.313,5.66-3.597,9.179-3.252c3.501,0.343,6.478,1.825,8.698,4.624c3.938,4.962,3.381,12.271-1.314,16.294
		C303.803,313.395,295.953,314.593,290.277,308.035z M224.774,409.682c0.011,0,0.02,0,0.029,0c0,0.832-0.001,1.66,0,2.491
		c0.018,8.794,0.036,17.587,0.075,26.382c0,0.354,0.111,0.841,0.355,1.042c1.617,1.33,3.983,1.461,5.681,0.317
		c0.291-0.196,0.561-0.658,0.568-1.005c0.081-3.117,0.122-6.24,0.137-9.36c0.032-7.216,0.037-14.437,0.063-21.656
		c0.007-2.721,0.033-5.442,0.059-8.161c0.073-8.216,0.2-16.434,0.204-24.654c0.003-4.076-2.44-6.989-6.325-7.577
		c-3.063-0.462-6.168-0.529-9.233,0.097c-2.769,0.562-5.039,1.826-6.159,4.627c-1.522,3.802-1.5,7.655-0.392,11.532
		c0.251,0.881,0.807,1.608,1.756,1.847c1.586,0.398,3.391-0.509,3.856-2.085c0.318-1.077,0.383-2.238,0.473-3.37
		c0.09-1.134-0.056-2.299,0.133-3.414c0.33-1.954,1.789-3.052,3.848-3.113c2.514-0.075,3.692,0.595,4.159,2.79
		c0.409,1.917,0.67,3.903,0.684,5.859C224.815,391.408,224.774,400.545,224.774,409.682z M295.031,405.22
		c-0.042,0.02-0.077,0.025-0.093,0.046c-0.172,0.228-0.344,0.458-0.515,0.685c-1.409,1.882-3.154,3.236-5.584,3.461
		c-2.456,0.226-4.613-0.646-6.64-1.908c-0.497-0.307-0.842-0.365-1.354,0.004c-0.667,0.48-1.409,0.88-2.161,1.22
		c-2.03,0.909-4.082,1.072-6.122,0.018c-1.359-0.703-2.411-1.749-3.233-3.013c-0.316-0.484-0.583-0.547-1.107-0.332
		c-0.788,0.328-1.612,0.601-2.446,0.782c-3.396,0.736-5.736-0.758-6.49-4.14c-0.198-0.884-0.265-1.795-0.401-2.769
		c-0.363,0.175-0.707,0.386-1.076,0.508c-1.458,0.486-2.896,1.085-4.394,1.374c-1.989,0.385-3.496-0.862-3.719-2.858
		c-0.063-0.536-0.068-1.087-0.018-1.625c0.078-0.868,0.222-1.73,0.341-2.615c-0.983-0.046-1.915-0.092-2.911-0.141
		c-1.165,4.292-2.327,8.584-3.501,12.913c0.244,0.056,0.379,0.097,0.517,0.118c5.491,0.81,10.97,1.697,16.474,2.415
		c10.801,1.401,21.641,2.126,32.544,1.746c7.024-0.248,13.988-0.947,20.852-2.482c1.916-0.431,3.807-0.979,5.803-1.493
		c-1.348-4.595-2.657-9.05-3.97-13.516c-0.733,0.098-1.351,0.181-1.96,0.26c0.1,0.693,0.232,1.313,0.272,1.936
		c0.143,2.187-1.016,3.494-3.187,3.395c-1.782-0.085-3.555-0.401-5.329-0.617c-0.065,0.642-0.125,1.44-0.231,2.232
		c-0.606,4.473-3.423,6.379-7.782,5.246C296.733,405.843,295.882,405.505,295.031,405.22z M254.886,410.592
		c0,0.292-0.012,0.574,0.002,0.853c0.172,4.027,0.265,8.06,0.549,12.079c0.163,2.303,0.632,4.583,0.98,6.873
		c0.058,0.376,0.107,0.73,0.676,0.809c6.037,0.81,11.92,0.3,17.637-1.889c0.566-0.215,0.785-0.47,0.77-1.099
		c-0.096-3.885-0.136-7.778-0.222-11.667c-0.028-1.301-0.129-2.604-0.19-3.815C268.314,412.014,261.645,411.308,254.886,410.592z
		 M310.41,411.208c-6.75,1.183-13.405,1.671-20.118,1.796c0,0.249-0.003,0.389,0,0.529c0.098,4.891,0.208,9.783,0.276,14.673
		c0.01,0.609,0.186,0.887,0.764,1.109c5.236,1.996,10.635,2.605,16.191,2.05c1.947-0.191,2.021-0.15,2.155-2.092
		c0.286-4.192,0.521-8.387,0.716-12.584C310.479,414.898,310.41,413.098,310.41,411.208z M299.787,310.878
		c5.956,0.002,10.526-4.367,10.506-10.046c-0.021-5.624-4.813-10.357-10.469-10.345c-5.431,0.011-10.07,4.59-10.099,9.967
		C289.695,306.26,294.15,310.875,299.787,310.878z M257.205,311.366c6.583-0.252,10.458-4.551,10.525-10.051
		c0.071-5.607-4.759-10.334-10.441-10.376c-5.373-0.04-10.094,4.592-10.139,9.947C247.105,306.622,251.641,311.353,257.205,311.366z
		 M344.664,238.237c-11.955-11.991-26.46-17.795-43.346-18.239c0,1.135,0,2.145,0,3.158c0.325,0.062,0.604,0.125,0.886,0.165
		c5.078,0.708,10.08,1.765,14.979,3.29c7.472,2.325,14.437,5.622,20.356,10.847c1.387,1.223,2.629,2.612,4.016,4.005
		C342.611,240.363,343.615,239.323,344.664,238.237z M286.753,346.737c-0.03-0.007-0.059-0.011-0.09-0.019
		c-0.007-0.143-0.021-0.285-0.024-0.429c-0.047-1.374,0.443-1.715,1.704-1.208c0.928,0.372,1.849,0.783,2.806,1.058
		c1.093,0.311,2.214,0.565,3.339,0.694c0.84,0.097,1.083-0.234,0.789-1.025c-0.362-0.986-0.885-1.911-1.305-2.876
		c-0.333-0.76-0.847-0.845-1.637-0.766c-4.351,0.434-8.706,1.067-13.068,1.096c-4.474,0.03-8.952-0.569-13.43-0.865
		c-0.334-0.022-0.858,0.067-0.995,0.289c-0.528,0.842-0.997,1.739-1.374,2.662c-0.463,1.135-0.219,1.397,0.991,1.23
		c0.112-0.015,0.227-0.037,0.334-0.073c1.459-0.496,2.921-0.98,4.374-1.495c0.993-0.354,1.449-0.06,1.542,0.976
		c0.076,0.853,0.155,1.717,0.364,2.54c0.388,1.534,1.124,1.846,2.535,1.184c0.258-0.122,0.526-0.246,0.745-0.426
		c1.17-0.957,2.346-1.911,3.484-2.911c0.739-0.649,1.061-0.675,1.824-0.036c0.984,0.828,1.953,1.688,3.007,2.421
		c0.688,0.482,1.501,0.81,2.293,1.118c0.642,0.251,1.159-0.066,1.33-0.71C286.504,348.371,286.605,347.549,286.753,346.737z
		 M256.961,433.009c0.469,2.869,1.845,4.889,4.495,5.838c0.984,0.352,2.048,0.569,3.09,0.648c2.88,0.229,5.71-0.116,8.443-1.09
		c0.786-0.28,1.558-0.65,1.848-1.534c0.617-1.889,0.67-3.836,0.633-5.892C269.444,433.263,263.333,433.863,256.961,433.009z
		 M290.524,430.95c0.191,1.43,0.349,2.703,0.54,3.968c0.137,0.924,0.649,1.629,1.379,2.191c3.063,2.362,6.606,2.843,10.31,2.543
		c1.714-0.141,3.264-0.841,4.165-2.377c0.758-1.29,1.28-2.713,1.983-4.243C302.546,433.852,296.554,433.223,290.524,430.95z
		 M347.941,294.442c1.666,0.546,3.277,0.872,4.957,0.785c2.104-0.11,3.624-1.153,4.205-3.176c0.381-1.331,0.629-2.747,0.644-4.126
		c0.03-2.692-1.316-3.789-3.994-3.431c-0.958,0.129-1.897,0.399-2.849,0.581c-0.557,0.106-0.788,0.399-0.871,0.972
		c-0.127,0.873-0.36,1.732-0.578,2.59C348.967,290.544,348.462,292.445,347.941,294.442z M208.947,294.459
		c-0.716-2.963-1.402-5.823-2.113-8.677c-0.051-0.205-0.27-0.459-0.466-0.525c-1.525-0.508-3.072-0.933-4.706-0.73
		c-1.333,0.165-2.082,0.821-2.337,2.136c-0.377,1.964-0.07,3.88,0.617,5.727c0.558,1.503,1.675,2.445,3.268,2.729
		C205.177,295.468,207.069,295.06,208.947,294.459z M226.183,365.69c-0.638-0.998-1.393-1.819-1.729-2.783
		c-0.691-1.982-1.978-2.612-3.981-2.485c-2.148,0.136-4.292,0.134-6.245,1.195c-1.966,1.067-3.086,3.812-2.367,5.765
		C216.358,364.869,221.211,365.25,226.183,365.69z"/>
	<path stroke="#000000" stroke-miterlimit="10" d="M278.424,223.67c6.96-0.059,13.909,0.202,20.82,1.067
		c8.983,1.124,17.762,3.041,26.009,6.926c6.954,3.278,12.942,7.757,17.34,14.175c3.495,5.099,5.512,10.769,6.449,16.841
		c0.801,5.173,0.901,10.374,0.353,15.579c-0.178,1.706-0.504,3.395-0.728,5.097c-0.073,0.545-0.377,0.795-0.804,1.097
		c-1.47,1.035-2.938,1.208-4.729,0.81c-8.922-1.983-17.717-4.34-26.086-8.082c-5.595-2.5-10.86-5.536-15.442-9.651
		c-5.437-4.885-9.187-10.764-10.554-18.035c-0.617-3.287-0.715-6.595-0.403-9.918c0.055-0.573,0.089-1.114-0.598-1.33
		c-0.636-0.198-0.94,0.231-1.235,0.673c-7.301,10.874-16.317,20.045-27.187,27.372c-9.207,6.205-19.203,10.73-29.804,13.956
		c-6.935,2.11-13.998,3.649-21.173,4.67c-1.175,0.168-2.188-0.66-2.399-1.805c-0.859-4.695-1.199-9.426-0.976-14.19
		c0.374-8.02,2.198-15.618,6.654-22.428c3.957-6.044,9.341-10.478,15.684-13.806c6.702-3.515,13.881-5.582,21.29-6.927
		c7.821-1.42,15.715-2.041,23.655-2.09C275.85,223.661,277.137,223.67,278.424,223.67z M218.949,272.254
		c0.482-0.118,0.766-0.167,1.035-0.256c5.779-1.895,11.624-3.614,17.321-5.735c8.634-3.217,16.798-7.386,24.166-12.998
		c4.98-3.793,9.33-8.182,12.728-13.473c0.363-0.563,0.577-1.146-0.08-1.57c-0.656-0.426-1.082,0.012-1.461,0.571
		c-0.833,1.231-1.665,2.47-2.587,3.632c-4.835,6.102-10.903,10.74-17.578,14.633c-9.094,5.304-18.861,9-28.907,12.017
		c-1.533,0.459-3.09,0.845-4.604,1.361c-0.317,0.108-0.658,0.634-0.676,0.985C218.29,271.701,218.745,272.009,218.949,272.254z
		 M340.789,267.529c0.635,0.065,1.121-0.151,1.173-0.825c0.048-0.623-0.372-0.898-0.964-0.979c-1.388-0.188-2.783-0.352-4.16-0.605
		c-10.576-1.956-19.017-7.175-24.766-16.396c-1.252-2.008-2.237-4.182-3.323-6.29c-0.274-0.532-0.649-0.852-1.227-0.615
		c-0.612,0.253-0.71,0.768-0.433,1.357c0.048,0.104,0.091,0.211,0.138,0.315c2.207,5.064,5.153,9.629,9.157,13.47
		C323.207,263.509,331.55,266.556,340.789,267.529z M222.73,257.546c0.063-0.048,0.127-0.099,0.193-0.148
		c0.168-0.025,0.339-0.043,0.506-0.074c13.325-2.491,24.389-9.148,34.023-18.445c0.473-0.457,0.703-0.961,0.181-1.484
		c-0.534-0.533-1.009-0.229-1.486,0.198c-1.897,1.696-3.756,3.441-5.735,5.041c-6.673,5.405-14.075,9.458-22.383,11.754
		c-1.734,0.478-3.506,0.814-5.263,1.21c-0.554,0.125-0.932,0.465-0.779,1.018C222.082,256.968,222.473,257.24,222.73,257.546z"/>
	<path stroke="#000000" stroke-miterlimit="10" d="M347.744,288.017c-1.602,6.495-3.552,12.763-6.472,18.697
		c-4.617,9.388-11.066,17.193-19.79,23.056c-6.937,4.659-14.581,7.612-22.693,9.417c-6.642,1.479-13.385,2.303-20.179,2.329
		c-6.015,0.024-12-0.647-17.912-1.796c-7.861-1.53-15.375-4.03-22.302-8.119c-10.898-6.433-18.63-15.643-23.779-27.12
		c-2.506-5.579-4.208-11.415-5.677-17.556c0.49,0.084,0.922,0.055,1.244,0.229c5.633,3.058,11.248,6.146,16.877,9.203
		c0.453,0.246,0.507,0.51,0.426,0.959c-1.976,10.826,5.028,21.003,15.996,23.133c7.827,1.519,14.845-0.099,20.709-5.737
		c3.646-3.507,5.69-7.75,5.847-12.861c0.009-0.339,0.29-0.808,0.582-0.982c5.264-3.146,10.571-2.772,15.871-0.093
		c0.209,0.106,0.406,0.483,0.406,0.735c-0.007,10.442,9.342,18.038,17.607,19.165c8.897,1.212,16.308-1.415,21.826-8.629
		c3.245-4.239,4.055-9.131,3.191-14.325c-0.121-0.73-0.018-1.101,0.66-1.471c4.926-2.678,9.845-5.373,14.724-8.138
		C345.884,287.555,346.723,287.693,347.744,288.017z M301.002,328.148c-0.094,0.163-0.11,0.223-0.148,0.253
		c-0.115,0.086-0.234,0.168-0.355,0.239c-4.219,2.438-8.77,3.789-13.629,3.833c-2.563,0.022-5.129-0.319-7.69-0.518
		c-0.582-0.047-1.061,0.031-1.168,0.686c-0.113,0.667,0.237,1.011,0.896,1.094c0.934,0.122,1.862,0.289,2.799,0.388
		c6.526,0.701,12.766-0.236,18.619-3.315c0.466-0.243,0.931-0.48,1.495-0.77c0.053,0.518,0.112,0.908,0.135,1.302
		c0.035,0.593,0.347,0.905,0.925,0.898c0.603-0.007,0.861-0.403,0.872-0.958c0.008-0.368-0.029-0.743-0.084-1.11
		c-0.312-2.009-1.198-3.627-3.145-4.494c-0.562-0.249-1.158-0.361-1.465,0.336c-0.291,0.662,0.082,1.051,0.688,1.334
		C300.193,327.559,300.59,327.88,301.002,328.148z M273.127,311.851c0.207,0.224,0.414,0.631,0.643,0.646
		c0.364,0.021,0.854-0.112,1.101-0.366c0.936-0.956,1.698-2.1,2.704-2.965c1.594-1.369,3.031-1.194,4.401,0.415
		c0.625,0.735,1.112,1.588,1.637,2.402c0.338,0.525,0.768,0.821,1.353,0.475c0.537-0.317,0.59-0.838,0.253-1.338
		c-0.681-1.019-1.299-2.104-2.122-3c-1.769-1.935-4.147-2.273-6.154-0.715c-1.329,1.033-2.37,2.442-3.521,3.7
		C273.282,311.258,273.254,311.512,273.127,311.851z"/>
	<path stroke="#000000" stroke-miterlimit="10" d="M232.425,369.388c-3.76-3.194-6.713-6.717-8.139-11.264
		c2.683-1.808,5.348-3.531,7.937-5.363c5.633-3.985,10.418-8.85,14.643-14.283c0.242-0.312,0.411-0.65,0.952-0.448
		c4.811,1.792,9.771,3.03,14.828,3.893c0.111,0.018,0.222,0.047,0.396,0.088c-0.373,0.733-0.784,1.414-1.076,2.144
		c-0.458,1.145-0.989,2.359-0.047,3.487c0.911,1.089,2.199,0.854,3.366,0.607c1.224-0.259,2.405-0.707,3.604-1.072
		c0.196,0.784,0.334,1.606,0.61,2.381c0.707,1.981,2.23,2.696,4.231,2.042c1.737-0.569,3.049-1.777,4.379-2.955
		c0.212-0.187,0.42-0.381,0.649-0.592c0.814,0.645,1.542,1.338,2.381,1.858c1.031,0.647,2.106,1.294,3.25,1.678
		c1.729,0.577,3.065-0.174,3.639-1.898c0.256-0.777,0.332-1.613,0.507-2.519c0.657,0.228,1.355,0.528,2.084,0.705
		c1.272,0.305,2.555,0.686,3.85,0.755c2.094,0.114,3.151-1.264,2.56-3.29c-0.357-1.222-0.97-2.368-1.502-3.625
		c1.138-0.238,2.355-0.482,3.565-0.746c4.76-1.041,9.389-2.493,13.85-4.468c0.398-0.177,0.679-0.237,1.044,0.138
		c4.079,4.222,8.187,8.421,11.672,13.161c1.143,1.56,2.074,3.283,3.036,4.967c0.612,1.076,0.469,2.183-0.093,3.28
		c-1.175,2.302-2.839,4.235-4.644,6.033c-2.555,2.542-5.21,4.982-8.023,7.658c-0.146-1.338-0.208-2.401-0.387-3.448
		c-0.677-4.029-1.385-8.053-2.088-12.081c-0.024-0.141-0.077-0.277-0.119-0.413c-0.158-0.535-0.504-0.863-1.075-0.734
		c-0.613,0.142-0.799,0.611-0.667,1.196c0.304,1.368,0.701,2.719,0.923,4.1c0.625,3.949,1.183,7.909,1.797,12.065
		c-22.444-3.095-44.623-2.336-66.839,0.46c0-0.964-0.055-1.877,0.008-2.781c0.359-5.022,0.757-10.043,1.098-15.067
		c0.026-0.38-0.185-0.946-0.477-1.138c-0.499-0.334-0.936,0.041-1.302,0.473c-2.458,2.902-4.822,5.897-7.438,8.654
		C237.233,365.281,234.787,367.246,232.425,369.388z"/>
	<g>
		<path d="M288.668,242.347c-0.154,14.997,7.579,24.94,19.419,32.232c-1.808,0-3.654-0.018-5.502,0.008
			c-0.739,0.009-1.483,0.098-2.221,0.182c-0.606,0.069-0.946,0.429-0.857,1.051c0.082,0.586,0.503,0.821,1.058,0.75
			c6.355-0.816,12.214,0.762,17.939,3.428c2.666,1.242,5.561,2.042,8.409,2.842c5.008,1.407,10.056,2.659,15.087,3.976
			c0.271,0.07,0.54,0.137,1.05,0.268c-4.833,2.674-9.492,5.248-14.101,7.797c-4.619-9.786-12.401-14.375-22.982-13.299
			c-10.312,1.049-16.773,6.978-19.11,17.309c-5.543-2.616-11.179-2.941-16.701,0.105c-2.593-10.988-9.534-16.966-20.695-17.502
			c-9.979-0.48-17.103,4.212-21.454,13.316c-4.959-2.711-10.01-5.472-15.214-8.319c2.295-0.433,4.399-0.816,6.495-1.23
			c6.039-1.191,11.91-2.99,17.808-4.726c2.812-0.827,5.574-1.936,8.508-2.372c2.913-0.434,5.819-0.906,8.728-1.357
			c0.426-0.064,0.854-0.094,1.282-0.143c0.577-0.064,0.896-0.391,0.855-0.97c-0.04-0.598-0.432-0.858-1.003-0.795
			c-1.849,0.201-3.695,0.424-5.544,0.635c-0.21,0.024-0.421,0.038-0.665-0.009C265.127,267.839,278.258,256.901,288.668,242.347z"/>
	</g>
	<path stroke="#000000" stroke-miterlimit="10" d="M282.594,372.152c8.455-0.007,16.884,0.42,25.287,1.301
		c2.103,0.218,4.216,0.439,6.296,0.821c1.801,0.328,3.114,1.506,4.087,3.012c0.463,0.718,0.346,1.57-0.238,2.153
		c-0.843,0.835-1.778,1.593-2.753,2.278c-0.964,0.678-1.085,1.137-0.222,1.935c1.211,1.122,2.003,2.491,2.464,4.059
		c0.589,2.009-0.466,3.791-2.518,4.157c-0.721,0.13-1.479,0.108-2.216,0.081c-0.982-0.035-1.328,0.416-1.06,1.383
		c0.235,0.85,0.479,1.709,0.585,2.584c0.137,1.125-0.273,1.552-1.392,1.534c-1.934-0.027-3.809-0.328-5.554-1.255
		c-0.326-0.171-0.9-0.249-1.162-0.072c-0.269,0.18-0.365,0.714-0.414,1.109c-0.172,1.468-0.135,2.979-0.464,4.411
		c-0.574,2.461-2.168,3.391-4.635,2.809c-1.158-0.272-2.279-0.739-3.385-1.198c-0.743-0.304-1.225-0.2-1.634,0.522
		c-0.713,1.257-1.597,2.384-2.868,3.132c-2.009,1.179-4.027,0.834-6.001-0.079c-0.878-0.406-1.714-0.915-2.528-1.445
		c-0.587-0.382-1.049-0.392-1.63,0.036c-0.78,0.571-1.604,1.107-2.469,1.535c-2.634,1.294-4.861,0.799-6.738-1.46
		c-0.455-0.549-0.867-1.143-1.225-1.758c-0.399-0.685-0.866-0.739-1.582-0.493c-1.42,0.489-2.855,1.041-4.329,1.247
		c-1.557,0.214-2.646-0.572-3.004-2.097c-0.334-1.431-0.4-2.933-0.475-4.411c-0.059-1.105-0.591-1.468-1.597-1.003
		c-1.708,0.787-3.434,1.528-5.163,2.271c-0.228,0.098-0.501,0.114-0.756,0.13c-1.272,0.084-1.855-0.368-1.847-1.654
		c0.009-1.05,0.227-2.096,0.392-3.139c0.07-0.45,0.25-0.88,0.361-1.323c0.244-0.964-0.186-1.47-1.167-1.283
		c-1.61,0.303-3.151,0.279-4.708-0.353c-1.689-0.688-2.475-1.73-1.922-3.455c0.491-1.527,1.313-2.961,2.099-4.375
		c0.626-1.123,0.511-1.527-0.714-1.924c-0.948-0.307-1.908-0.632-2.778-1.1c-1.336-0.715-1.492-1.581-0.451-2.682
		c1.789-1.892,3.746-3.416,6.563-3.626c7.271-0.548,14.531-1.314,21.804-1.861C274.809,372.313,278.705,372.293,282.594,372.152z
		 M269.463,385.368c1.412,0.004,2.341-0.985,2.325-2.486c-0.011-1.45-0.871-2.391-2.203-2.413c-1.421-0.021-2.444,1.027-2.437,2.499
		C267.155,384.425,268.06,385.366,269.463,385.368z M283.584,389.883c0.014-1.44-0.928-2.494-2.236-2.507
		c-1.345-0.016-2.415,1.063-2.425,2.447c-0.012,1.474,0.868,2.449,2.236,2.479C282.554,392.332,283.57,391.316,283.584,389.883z
		 M301.585,390.031c-0.02-1.472-0.921-2.39-2.333-2.371c-1.38,0.018-2.34,1.074-2.307,2.533c0.036,1.455,0.967,2.365,2.384,2.335
		C300.651,392.501,301.603,391.446,301.585,390.031z M268.806,394.551c-0.003-1.364-0.963-2.31-2.333-2.307
		c-1.372,0.006-2.333,0.962-2.33,2.318c0.002,1.398,1.01,2.405,2.377,2.381C267.838,396.917,268.81,395.902,268.806,394.551z
		 M256.115,378.156c-1.369-0.019-2.34,0.917-2.37,2.277c-0.03,1.355,0.924,2.377,2.247,2.414c1.339,0.038,2.421-1.001,2.44-2.34
		C258.452,379.174,257.467,378.176,256.115,378.156z M287.91,397.804c-1.385,0.016-2.3,0.95-2.282,2.333
		c0.02,1.375,0.97,2.335,2.312,2.335c1.375,0.001,2.344-1.002,2.33-2.409C290.254,398.695,289.307,397.79,287.91,397.804z
		 M295.048,382.16c1.384,0.015,2.422-1.034,2.411-2.437c-0.012-1.39-0.7-2.146-1.978-2.175c-1.523-0.035-2.703,0.941-2.709,2.244
		C292.761,381.133,293.735,382.144,295.048,382.16z M309.88,381.006c1.287-0.001,2.325-1.031,2.352-2.336
		c0.029-1.368-0.989-2.37-2.389-2.351c-1.315,0.015-2.271,0.957-2.288,2.267C307.535,379.967,308.531,381.006,309.88,381.006z
		 M280.557,376.48c-0.01,1.433,0.928,2.433,2.292,2.44c1.332,0.007,2.344-0.996,2.349-2.318c0-1.29-1.128-2.29-2.59-2.294
		C281.256,374.305,280.568,375.035,280.557,376.48z"/>
	<path stroke="#000000" stroke-miterlimit="10" d="M301.42,218.173c0.58-5.114,1.437-10.034,4.109-14.424
		c2.938-4.818,7.302-6.868,12.88-6.568c5.306,0.284,10.165,2.088,14.916,4.277c4.868,2.244,9.602,4.729,13.871,8.01
		c2.604,2.002,4.96,4.245,6.546,7.181c1.762,3.259,1.897,6.585,0.12,9.848c-1.961,3.607-4.363,6.921-7.187,9.917
		c-0.19,0.202-0.42,0.367-0.668,0.583C333.717,224.645,318.77,218.665,301.42,218.173z"/>
	<path stroke="#000000" stroke-miterlimit="10" d="M265.642,292.19c-6.722-5.06-13.497-3.215-17.373,1.087
		c-3.808,4.223-3.9,11.156-0.114,15.635c3.49,4.135,10.137,6.293,17.187,1.725c-0.603,0.719-1.18,1.465-1.812,2.155
		c-8.349,9.088-24.233,8.669-31.818-2.296c-4.159-6.009-3.697-14.314,1.054-20.056c8.358-10.103,24.606-9.614,32.344,0.974
		C265.293,291.669,265.465,291.931,265.642,292.19z"/>
	<path stroke="#000000" stroke-miterlimit="10" d="M290.277,308.035c5.676,6.558,13.526,5.36,17.893,1.62
		c4.695-4.022,5.252-11.331,1.314-16.293c-2.221-2.8-5.197-4.281-8.698-4.624c-3.52-0.345-6.547,0.939-9.179,3.252
		c-0.058-0.063-0.116-0.125-0.174-0.188c1.029-1.117,1.993-2.307,3.098-3.341c8.909-8.341,24.074-6.577,30.797,3.556
		c4.456,6.72,3.261,15.666-2.565,21.43c-7.542,7.458-21.148,7.912-29.113-0.38C292.145,311.496,290.649,309.381,290.277,308.035z"/>
	<path stroke="#000000" stroke-miterlimit="10" d="M224.774,409.682c0-9.137,0.041-18.273-0.03-27.412
		c-0.015-1.955-0.275-3.941-0.684-5.859c-0.466-2.194-1.645-2.863-4.159-2.789c-2.059,0.061-3.52,1.158-3.849,3.112
		c-0.188,1.115-0.042,2.279-0.133,3.414c-0.09,1.131-0.155,2.292-0.473,3.37c-0.464,1.576-2.271,2.483-3.856,2.085
		c-0.95-0.238-1.505-0.965-1.756-1.847c-1.107-3.877-1.13-7.73,0.392-11.531c1.121-2.801,3.39-4.065,6.159-4.627
		c3.065-0.626,6.17-0.559,9.233-0.096c3.885,0.588,6.329,3.501,6.325,7.577c-0.004,8.22-0.13,16.438-0.203,24.654
		c-0.026,2.719-0.052,5.44-0.06,8.161c-0.026,7.219-0.031,14.439-0.063,21.656c-0.015,3.12-0.056,6.243-0.137,9.36
		c-0.007,0.347-0.277,0.809-0.568,1.005c-1.698,1.144-4.065,1.014-5.681-0.317c-0.244-0.2-0.355-0.688-0.355-1.042
		c-0.039-8.795-0.056-17.587-0.074-26.381c-0.001-0.832,0-1.66,0-2.491C224.795,409.682,224.786,409.682,224.774,409.682z"/>
	<path stroke="#000000" stroke-miterlimit="10" d="M295.031,405.22c0.851,0.285,1.701,0.622,2.579,0.852
		c4.36,1.132,7.175-0.775,7.782-5.247c0.107-0.792,0.167-1.59,0.231-2.232c1.775,0.215,3.547,0.531,5.33,0.617
		c2.171,0.099,3.328-1.208,3.187-3.395c-0.042-0.622-0.174-1.242-0.273-1.936c0.609-0.079,1.227-0.162,1.961-0.26
		c1.313,4.466,2.621,8.92,3.97,13.516c-1.996,0.514-3.887,1.061-5.803,1.493c-6.864,1.535-13.828,2.233-20.852,2.482
		c-10.903,0.38-21.744-0.344-32.544-1.746c-5.504-0.717-10.983-1.604-16.474-2.415c-0.138-0.021-0.272-0.063-0.517-0.117
		c1.174-4.33,2.336-8.622,3.501-12.914c0.996,0.048,1.928,0.094,2.911,0.141c-0.12,0.885-0.264,1.749-0.341,2.616
		c-0.049,0.537-0.045,1.088,0.018,1.624c0.224,1.996,1.729,3.243,3.719,2.857c1.497-0.288,2.935-0.887,4.394-1.373
		c0.369-0.122,0.712-0.333,1.076-0.508c0.137,0.974,0.204,1.885,0.401,2.769c0.754,3.382,3.094,4.876,6.49,4.14
		c0.834-0.181,1.658-0.455,2.446-0.782c0.524-0.216,0.791-0.153,1.107,0.332c0.823,1.264,1.874,2.31,3.233,3.013
		c2.042,1.054,4.092,0.89,6.122-0.018c0.75-0.34,1.493-0.74,2.161-1.22c0.512-0.369,0.857-0.311,1.354-0.004
		c2.027,1.261,4.185,2.133,6.64,1.908c2.43-0.225,4.176-1.578,5.584-3.461c0.17-0.228,0.342-0.458,0.515-0.685
		C294.955,405.246,294.989,405.24,295.031,405.22z"/>
	<path stroke="#000000" stroke-miterlimit="10" d="M254.886,410.592c6.758,0.717,13.428,1.423,20.202,2.144
		c0.061,1.213,0.16,2.515,0.19,3.815c0.084,3.889,0.126,7.782,0.222,11.667c0.015,0.629-0.205,0.884-0.77,1.099
		c-5.717,2.188-11.601,2.699-17.638,1.889c-0.569-0.079-0.617-0.433-0.676-0.809c-0.348-2.291-0.817-4.57-0.98-6.873
		c-0.285-4.019-0.376-8.052-0.549-12.079C254.875,411.165,254.886,410.884,254.886,410.592z"/>
	<path stroke="#000000" stroke-miterlimit="10" d="M310.41,411.208c0,1.889,0.069,3.689-0.017,5.483
		c-0.194,4.196-0.43,8.392-0.716,12.584c-0.134,1.941-0.208,1.9-2.155,2.092c-5.556,0.555-10.957-0.054-16.191-2.05
		c-0.578-0.223-0.753-0.5-0.764-1.11c-0.068-4.891-0.178-9.781-0.276-14.673c-0.003-0.141,0-0.28,0-0.528
		C297.004,412.88,303.661,412.391,310.41,411.208z"/>
	<path stroke="#000000" stroke-miterlimit="10" d="M299.787,310.878c-5.637-0.004-10.091-4.619-10.062-10.425
		c0.028-5.376,4.667-9.957,10.099-9.967c5.656-0.012,10.448,4.721,10.469,10.345C310.313,306.511,305.743,310.881,299.787,310.878z
		 M304.736,301.343c0.011-3.119-2.504-4.888-5.172-4.922c-2.499-0.033-4.836,2.355-4.825,4.855c0.012,2.735,2.333,4.99,5.103,4.952
		C302.675,306.191,304.75,304.122,304.736,301.343z"/>
	<path stroke="#000000" stroke-miterlimit="10" d="M257.205,311.366c-5.564-0.013-10.1-4.743-10.054-10.48
		c0.045-5.354,4.765-9.986,10.139-9.947c5.682,0.042,10.513,4.769,10.442,10.376C267.663,306.815,263.789,311.114,257.205,311.366z
		 M262.163,301.849c0.047-3.331-2.578-4.908-5.107-4.986c-2.524-0.078-4.856,2.313-4.864,4.819
		c-0.008,2.752,2.262,5.005,5.049,5.014C260.06,306.705,262.155,304.642,262.163,301.849z"/>
	<path stroke="#000000" stroke-miterlimit="10" d="M344.664,238.237c-1.049,1.085-2.051,2.126-3.111,3.225
		c-1.386-1.393-2.627-2.782-4.014-4.004c-5.921-5.225-12.886-8.522-20.356-10.847c-4.898-1.524-9.9-2.583-14.979-3.29
		c-0.283-0.04-0.563-0.104-0.886-0.166c0-1.013,0-2.024,0-3.159C318.204,220.442,332.708,226.246,344.664,238.237z"/>
	<path stroke="#000000" stroke-miterlimit="10" d="M286.753,346.737c-0.148,0.811-0.249,1.633-0.462,2.428
		c-0.171,0.644-0.687,0.961-1.331,0.71c-0.792-0.307-1.603-0.636-2.292-1.118c-1.054-0.733-2.022-1.593-3.007-2.421
		c-0.764-0.639-1.085-0.614-1.824,0.036c-1.139,1-2.314,1.954-3.485,2.911c-0.218,0.18-0.486,0.303-0.744,0.426
		c-1.41,0.662-2.146,0.35-2.535-1.184c-0.208-0.823-0.289-1.688-0.364-2.54c-0.092-1.035-0.549-1.33-1.542-0.976
		c-1.453,0.515-2.915,0.998-4.374,1.495c-0.107,0.036-0.222,0.058-0.334,0.073c-1.211,0.167-1.455-0.095-0.991-1.23
		c0.377-0.922,0.845-1.819,1.374-2.662c0.137-0.222,0.66-0.311,0.995-0.289c4.479,0.296,8.958,0.895,13.43,0.865
		c4.362-0.028,8.716-0.662,13.068-1.096c0.791-0.08,1.305,0.006,1.637,0.766c0.419,0.965,0.943,1.89,1.305,2.876
		c0.293,0.791,0.052,1.122-0.789,1.025c-1.125-0.129-2.247-0.384-3.34-0.694c-0.958-0.274-1.878-0.685-2.805-1.058
		c-1.261-0.506-1.753-0.165-1.704,1.208c0.003,0.144,0.017,0.287,0.024,0.429C286.694,346.726,286.724,346.73,286.753,346.737z"/>
	<path stroke="#000000" stroke-miterlimit="10" d="M256.961,433.009c6.373,0.854,12.483,0.255,18.509-2.028
		c0.037,2.055-0.016,4.002-0.633,5.892c-0.29,0.884-1.061,1.254-1.848,1.534c-2.734,0.973-5.563,1.317-8.443,1.09
		c-1.042-0.079-2.106-0.298-3.09-0.648C258.806,437.896,257.43,435.878,256.961,433.009z"/>
	<path stroke="#000000" stroke-miterlimit="10" d="M290.524,430.95c6.029,2.273,12.022,2.902,18.378,2.081
		c-0.704,1.53-1.227,2.954-1.984,4.244c-0.901,1.534-2.451,2.235-4.165,2.377c-3.704,0.3-7.245-0.181-10.31-2.543
		c-0.728-0.563-1.243-1.269-1.379-2.192C290.873,433.652,290.716,432.38,290.524,430.95z"/>
	<path stroke="#000000" stroke-miterlimit="10" d="M347.941,294.442c0.521-1.996,1.026-3.898,1.514-5.806
		c0.218-0.858,0.451-1.718,0.578-2.59c0.083-0.573,0.314-0.866,0.871-0.972c0.951-0.182,1.891-0.452,2.849-0.581
		c2.678-0.359,4.024,0.738,3.994,3.431c-0.015,1.38-0.263,2.795-0.644,4.126c-0.581,2.023-2.103,3.066-4.205,3.176
		C351.218,295.314,349.607,294.988,347.941,294.442z"/>
	<path stroke="#000000" stroke-miterlimit="10" d="M208.947,294.459c-1.878,0.601-3.769,1.009-5.736,0.658
		c-1.594-0.284-2.709-1.225-3.268-2.729c-0.688-1.846-0.995-3.763-0.618-5.727c0.255-1.315,1.004-1.972,2.337-2.136
		c1.634-0.202,3.181,0.223,4.706,0.73c0.196,0.066,0.414,0.32,0.466,0.525C207.545,288.636,208.231,291.496,208.947,294.459z"/>
	<path stroke="#000000" stroke-miterlimit="10" d="M226.183,365.69c-4.972-0.439-9.823-0.821-14.322,1.691
		c-0.719-1.953,0.4-4.697,2.367-5.765c1.952-1.061,4.097-1.06,6.245-1.195c2.004-0.127,3.29,0.503,3.981,2.485
		C224.79,363.872,225.545,364.692,226.183,365.69z"/>
	<path stroke="#000000" stroke-miterlimit="10" d="M218.949,272.254c-0.204-0.246-0.658-0.553-0.644-0.833
		c0.018-0.351,0.359-0.877,0.676-0.985c1.513-0.516,3.07-0.901,4.604-1.361c10.046-3.016,19.813-6.712,28.907-12.017
		c6.675-3.893,12.743-8.531,17.578-14.633c0.922-1.163,1.754-2.402,2.587-3.632c0.378-0.559,0.805-0.997,1.461-0.571
		c0.657,0.425,0.443,1.008,0.08,1.57c-3.397,5.292-7.748,9.68-12.728,13.473c-7.368,5.61-15.532,9.781-24.166,12.998
		c-5.697,2.121-11.542,3.84-17.321,5.735C219.713,272.087,219.43,272.136,218.949,272.254z"/>
	<path stroke="#000000" stroke-miterlimit="10" d="M340.789,267.529c-9.238-0.973-17.582-4.021-24.404-10.568
		c-4.004-3.841-6.95-8.405-9.158-13.47c-0.046-0.104-0.089-0.21-0.137-0.315c-0.277-0.589-0.18-1.105,0.432-1.357
		c0.577-0.237,0.952,0.082,1.228,0.615c1.084,2.108,2.07,4.282,3.323,6.29c5.749,9.22,14.188,14.44,24.766,16.396
		c1.376,0.253,2.772,0.418,4.16,0.605c0.591,0.081,1.01,0.356,0.963,0.979C341.91,267.378,341.423,267.594,340.789,267.529z"/>
	<path stroke="#000000" stroke-miterlimit="10" d="M222.73,257.546c-0.257-0.306-0.648-0.578-0.743-0.93
		c-0.151-0.553,0.225-0.893,0.779-1.018c1.756-0.396,3.528-0.731,5.263-1.21c8.308-2.297,15.71-6.35,22.383-11.754
		c1.978-1.6,3.838-3.345,5.735-5.041c0.477-0.427,0.952-0.731,1.486-0.198c0.521,0.523,0.292,1.028-0.181,1.484
		c-9.634,9.297-20.699,15.954-34.023,18.445c-0.167,0.031-0.338,0.049-0.506,0.074C222.857,257.448,222.793,257.497,222.73,257.546z
		"/>
	<path stroke="#000000" stroke-miterlimit="10" d="M301.002,328.148c-0.412-0.269-0.809-0.589-1.256-0.801
		c-0.605-0.283-0.978-0.672-0.688-1.334c0.307-0.698,0.903-0.586,1.467-0.337c1.945,0.867,2.831,2.484,3.143,4.494
		c0.055,0.366,0.092,0.741,0.084,1.11c-0.011,0.554-0.269,0.95-0.872,0.958c-0.577,0.007-0.888-0.304-0.924-0.898
		c-0.022-0.394-0.081-0.785-0.135-1.302c-0.565,0.29-1.029,0.526-1.496,0.77c-5.852,3.079-12.093,4.015-18.619,3.315
		c-0.936-0.1-1.865-0.267-2.799-0.388c-0.659-0.083-1.007-0.427-0.894-1.093c0.108-0.655,0.587-0.733,1.167-0.686
		c2.562,0.2,5.127,0.541,7.69,0.518c4.861-0.043,9.412-1.395,13.629-3.833c0.123-0.071,0.24-0.152,0.355-0.239
		C300.891,328.371,300.909,328.311,301.002,328.148z"/>
	<path stroke="#000000" stroke-miterlimit="10" d="M273.127,311.851c0.127-0.339,0.155-0.594,0.295-0.746
		c1.151-1.257,2.192-2.667,3.521-3.7c2.008-1.558,4.385-1.219,6.154,0.715c0.823,0.897,1.44,1.981,2.122,3
		c0.336,0.5,0.283,1.021-0.253,1.338c-0.584,0.346-1.015,0.05-1.353-0.475c-0.525-0.813-1.013-1.667-1.637-2.402
		c-1.37-1.61-2.807-1.785-4.401-0.415c-1.005,0.865-1.768,2.009-2.704,2.965c-0.248,0.253-0.737,0.388-1.101,0.366
		C273.541,312.483,273.333,312.075,273.127,311.851z"/>
	<path stroke="#000000" stroke-miterlimit="10" d="M269.463,385.368c-1.403-0.002-2.308-0.943-2.314-2.399
		c-0.007-1.472,1.015-2.521,2.437-2.499c1.333,0.021,2.192,0.962,2.203,2.413C271.804,384.383,270.875,385.372,269.463,385.368z"/>
	<path stroke="#000000" stroke-miterlimit="10" d="M283.584,389.883c-0.015,1.434-1.03,2.45-2.424,2.419
		c-1.37-0.03-2.248-1.003-2.236-2.479c0.012-1.384,1.08-2.462,2.425-2.447C282.658,387.388,283.598,388.442,283.584,389.883z"/>
	<path stroke="#000000" stroke-miterlimit="10" d="M301.585,390.031c0.018,1.414-0.935,2.47-2.256,2.497
		c-1.417,0.03-2.351-0.881-2.384-2.335c-0.034-1.459,0.925-2.515,2.306-2.533C300.665,387.641,301.566,388.558,301.585,390.031z"/>
	<path stroke="#000000" stroke-miterlimit="10" d="M268.806,394.551c0.004,1.352-0.968,2.366-2.287,2.392
		c-1.367,0.023-2.375-0.983-2.377-2.381c-0.004-1.357,0.958-2.313,2.329-2.318C267.844,392.24,268.803,393.186,268.806,394.551z"/>
	<path stroke="#000000" stroke-miterlimit="10" d="M256.115,378.156c1.353,0.02,2.337,1.019,2.317,2.351
		c-0.018,1.339-1.101,2.377-2.44,2.34c-1.323-0.037-2.277-1.059-2.247-2.414C253.775,379.073,254.746,378.137,256.115,378.156z"/>
	<path stroke="#000000" stroke-miterlimit="10" d="M287.91,397.804c1.398-0.015,2.344,0.891,2.359,2.259
		c0.015,1.407-0.957,2.41-2.33,2.409c-1.342,0-2.292-0.96-2.312-2.334C285.609,398.754,286.523,397.82,287.91,397.804z"/>
	<path stroke="#000000" stroke-miterlimit="10" d="M295.048,382.16c-1.313-0.016-2.288-1.027-2.277-2.368
		c0.007-1.303,1.188-2.278,2.71-2.244c1.278,0.03,1.966,0.785,1.977,2.175C297.47,381.126,296.432,382.174,295.048,382.16z"/>
	<path stroke="#000000" stroke-miterlimit="10" d="M309.88,381.006c-1.35,0-2.346-1.039-2.325-2.42
		c0.018-1.31,0.971-2.252,2.288-2.267c1.399-0.018,2.418,0.983,2.389,2.351C312.206,379.975,311.167,381.004,309.88,381.006z"/>
	<path stroke="#000000" stroke-miterlimit="10" d="M280.557,376.48c0.012-1.445,0.7-2.175,2.051-2.171
		c1.462,0.004,2.589,1.004,2.589,2.294c-0.003,1.322-1.016,2.325-2.347,2.318C281.485,378.913,280.546,377.913,280.557,376.48z"/>
	<path stroke="#000000" stroke-miterlimit="10" d="M304.736,301.343c0.014,2.779-2.061,4.848-4.895,4.885
		c-2.77,0.038-5.091-2.217-5.103-4.952c-0.011-2.5,2.327-4.888,4.825-4.855C302.232,296.454,304.745,298.224,304.736,301.343z"/>
	<path stroke="#000000" stroke-miterlimit="10" d="M262.163,301.849c-0.009,2.793-2.104,4.856-4.922,4.846
		c-2.787-0.009-5.057-2.262-5.049-5.014c0.007-2.505,2.34-4.896,4.864-4.819C259.585,296.941,262.21,298.518,262.163,301.849z"/>
</g>
<ellipse cx="469.283" cy="195.331" rx="89.296" ry="44.411"/>
<ellipse cx="425.474" cy="257.434" rx="14.249" ry="10.106"/>
<ellipse cx="406.725" cy="284.427" rx="10.499" ry="8.127"/>
</svg>
